<svg id="visual" viewBox="0 0 900 200" width="900" height="200" xmlns="http://www.w3.org/2000/svg" xmlns:xlink="http://www.w3.org/1999/xlink" version="1.1"><g stroke-width="1" stroke-linejoin="bevel"><path d="M500 105L472 200L569 130Z" fill="#5e8134" stroke="#5e8134"></path><path d="M472 200L572 200L569 130Z" fill="#989718" stroke="#989718"></path><path d="M500 105L374 90L472 200Z" fill="#c9a000" stroke="#c9a000"></path><path d="M374 90L360 200L472 200Z" fill="#e3a300" stroke="#e3a300"></path><path d="M604 0L496 0L500 105Z" fill="#386641" stroke="#386641"></path><path d="M500 105L431 0L374 90Z" fill="#386641" stroke="#386641"></path><path d="M700 87L604 0L569 130Z" fill="#989718" stroke="#989718"></path><path d="M569 130L604 0L500 105Z" fill="#b09c0a" stroke="#b09c0a"></path><path d="M572 200L698 200L569 130Z" fill="#426f3e" stroke="#426f3e"></path><path d="M496 0L431 0L500 105Z" fill="#e3a300" stroke="#e3a300"></path><path d="M698 200L700 87L569 130Z" fill="#839023" stroke="#839023"></path><path d="M274 0L296 123L374 90Z" fill="#839023" stroke="#839023"></path><path d="M374 90L296 123L360 200Z" fill="#ffa500" stroke="#ffa500"></path><path d="M806 0L710 0L700 87Z" fill="#5e8134" stroke="#5e8134"></path><path d="M700 87L710 0L604 0Z" fill="#5e8134" stroke="#5e8134"></path><path d="M296 123L260 200L360 200Z" fill="#c9a000" stroke="#c9a000"></path><path d="M698 200L778 130L700 87Z" fill="#70892c" stroke="#70892c"></path><path d="M698 200L801 200L778 130Z" fill="#4f783a" stroke="#4f783a"></path><path d="M431 0L274 0L374 90Z" fill="#386641" stroke="#386641"></path><path d="M296 123L222 200L260 200Z" fill="#ffa500" stroke="#ffa500"></path><path d="M177 129L222 200L296 123Z" fill="#426f3e" stroke="#426f3e"></path><path d="M274 0L237 0L296 123Z" fill="#5e8134" stroke="#5e8134"></path><path d="M900 72L806 0L778 130Z" fill="#5e8134" stroke="#5e8134"></path><path d="M778 130L806 0L700 87Z" fill="#4f783a" stroke="#4f783a"></path><path d="M237 0L177 129L296 123Z" fill="#ffa500" stroke="#ffa500"></path><path d="M801 200L900 200L778 130Z" fill="#70892c" stroke="#70892c"></path><path d="M900 200L900 72L778 130Z" fill="#426f3e" stroke="#426f3e"></path><path d="M900 72L900 0L806 0Z" fill="#ffa500" stroke="#ffa500"></path><path d="M237 0L128 0L177 129Z" fill="#839023" stroke="#839023"></path><path d="M177 129L82 200L222 200Z" fill="#426f3e" stroke="#426f3e"></path><path d="M72 80L82 200L177 129Z" fill="#ffa500" stroke="#ffa500"></path><path d="M128 0L72 80L177 129Z" fill="#70892c" stroke="#70892c"></path><path d="M0 123L0 200L82 200Z" fill="#c9a000" stroke="#c9a000"></path><path d="M0 0L0 123L72 80Z" fill="#c9a000" stroke="#c9a000"></path><path d="M72 80L0 123L82 200Z" fill="#c9a000" stroke="#c9a000"></path><path d="M128 0L0 0L72 80Z" fill="#989718" stroke="#989718"></path></g></svg>