<svg id="visual" viewBox="0 0 3000 3000" width="3000" height="3000" xmlns="http://www.w3.org/2000/svg" xmlns:xlink="http://www.w3.org/1999/xlink" version="1.1"><path d="M0 241L21.7 216C43.3 191 86.7 141 130.2 131C173.7 121 217.3 151 260.8 171C304.3 191 347.7 201 391.2 191C434.7 181 478.3 151 521.8 141C565.3 131 608.7 141 652.2 141C695.7 141 739.3 131 782.8 151C826.3 171 869.7 221 913 216C956.3 211 999.7 151 1043.2 131C1086.7 111 1130.3 131 1173.8 151C1217.3 171 1260.7 191 1304.2 186C1347.7 181 1391.3 151 1434.8 141C1478.3 131 1521.7 141 1565.2 141C1608.7 141 1652.3 131 1695.8 141C1739.3 151 1782.7 181 1826.2 186C1869.7 191 1913.3 171 1956.8 161C2000.3 151 2043.7 151 2087 161C2130.3 171 2173.7 191 2217.2 211C2260.7 231 2304.3 251 2347.8 231C2391.3 211 2434.7 151 2478.2 141C2521.7 131 2565.3 171 2608.8 171C2652.3 171 2695.7 131 2739.2 121C2782.7 111 2826.3 131 2869.8 156C2913.3 181 2956.7 211 2978.3 226L3000 241L3000 0L2978.3 0C2956.7 0 2913.3 0 2869.8 0C2826.3 0 2782.7 0 2739.2 0C2695.7 0 2652.3 0 2608.8 0C2565.3 0 2521.7 0 2478.2 0C2434.7 0 2391.3 0 2347.8 0C2304.3 0 2260.7 0 2217.2 0C2173.7 0 2130.3 0 2087 0C2043.7 0 2000.3 0 1956.8 0C1913.3 0 1869.7 0 1826.2 0C1782.7 0 1739.3 0 1695.8 0C1652.3 0 1608.7 0 1565.2 0C1521.7 0 1478.3 0 1434.8 0C1391.3 0 1347.7 0 1304.2 0C1260.7 0 1217.3 0 1173.8 0C1130.3 0 1086.7 0 1043.2 0C999.7 0 956.3 0 913 0C869.7 0 826.3 0 782.8 0C739.3 0 695.7 0 652.2 0C608.7 0 565.3 0 521.8 0C478.3 0 434.7 0 391.2 0C347.7 0 304.3 0 260.8 0C217.3 0 173.7 0 130.2 0C86.7 0 43.3 0 21.7 0L0 0Z" fill="#282828"></path><path d="M0 391L21.7 381C43.3 371 86.7 351 130.2 336C173.7 321 217.3 311 260.8 301C304.3 291 347.7 281 391.2 281C434.7 281 478.3 291 521.8 311C565.3 331 608.7 361 652.2 346C695.7 331 739.3 271 782.8 271C826.3 271 869.7 331 913 336C956.3 341 999.7 291 1043.2 271C1086.7 251 1130.3 261 1173.8 271C1217.3 281 1260.7 291 1304.2 296C1347.7 301 1391.3 301 1434.8 296C1478.3 291 1521.7 281 1565.2 276C1608.7 271 1652.3 271 1695.8 301C1739.3 331 1782.7 391 1826.2 386C1869.7 381 1913.3 311 1956.8 286C2000.3 261 2043.7 281 2087 291C2130.3 301 2173.7 301 2217.2 326C2260.7 351 2304.3 401 2347.8 391C2391.3 381 2434.7 311 2478.2 291C2521.7 271 2565.3 301 2608.8 306C2652.3 311 2695.7 291 2739.2 271C2782.7 251 2826.3 231 2869.8 246C2913.3 261 2956.7 311 2978.3 336L3000 361L3000 239L2978.3 224C2956.7 209 2913.3 179 2869.8 154C2826.3 129 2782.7 109 2739.2 119C2695.7 129 2652.3 169 2608.8 169C2565.3 169 2521.7 129 2478.2 139C2434.7 149 2391.3 209 2347.8 229C2304.3 249 2260.7 229 2217.2 209C2173.7 189 2130.3 169 2087 159C2043.7 149 2000.3 149 1956.8 159C1913.3 169 1869.7 189 1826.2 184C1782.7 179 1739.3 149 1695.8 139C1652.3 129 1608.7 139 1565.2 139C1521.7 139 1478.3 129 1434.8 139C1391.3 149 1347.7 179 1304.2 184C1260.7 189 1217.3 169 1173.8 149C1130.3 129 1086.7 109 1043.2 129C999.7 149 956.3 209 913 214C869.7 219 826.3 169 782.8 149C739.3 129 695.7 139 652.2 139C608.7 139 565.3 129 521.8 139C478.3 149 434.7 179 391.2 189C347.7 199 304.3 189 260.8 169C217.3 149 173.7 119 130.2 129C86.7 139 43.3 189 21.7 214L0 239Z" fill="#191919"></path><path d="M0 571L21.7 561C43.3 551 86.7 531 130.2 516C173.7 501 217.3 491 260.8 476C304.3 461 347.7 441 391.2 421C434.7 401 478.3 381 521.8 391C565.3 401 608.7 441 652.2 436C695.7 431 739.3 381 782.8 391C826.3 401 869.7 471 913 481C956.3 491 999.7 441 1043.2 411C1086.7 381 1130.3 371 1173.8 366C1217.3 361 1260.7 361 1304.2 366C1347.7 371 1391.3 381 1434.8 391C1478.3 401 1521.7 411 1565.2 411C1608.7 411 1652.3 401 1695.8 416C1739.3 431 1782.7 471 1826.2 456C1869.7 441 1913.3 371 1956.8 346C2000.3 321 2043.7 341 2087 371C2130.3 401 2173.7 441 2217.2 466C2260.7 491 2304.3 501 2347.8 476C2391.3 451 2434.7 391 2478.2 381C2521.7 371 2565.3 411 2608.8 431C2652.3 451 2695.7 451 2739.2 426C2782.7 401 2826.3 351 2869.8 346C2913.3 341 2956.7 381 2978.3 401L3000 421L3000 359L2978.3 334C2956.7 309 2913.3 259 2869.8 244C2826.3 229 2782.7 249 2739.2 269C2695.7 289 2652.3 309 2608.8 304C2565.3 299 2521.7 269 2478.2 289C2434.7 309 2391.3 379 2347.8 389C2304.3 399 2260.7 349 2217.2 324C2173.7 299 2130.3 299 2087 289C2043.7 279 2000.3 259 1956.8 284C1913.3 309 1869.7 379 1826.2 384C1782.7 389 1739.3 329 1695.8 299C1652.3 269 1608.7 269 1565.2 274C1521.7 279 1478.3 289 1434.8 294C1391.3 299 1347.7 299 1304.2 294C1260.7 289 1217.3 279 1173.8 269C1130.3 259 1086.7 249 1043.2 269C999.7 289 956.3 339 913 334C869.7 329 826.3 269 782.8 269C739.3 269 695.7 329 652.2 344C608.7 359 565.3 329 521.8 309C478.3 289 434.7 279 391.2 279C347.7 279 304.3 289 260.8 299C217.3 309 173.7 319 130.2 334C86.7 349 43.3 369 21.7 379L0 389Z" fill="#050505"></path><path d="M0 721L21.7 701C43.3 681 86.7 641 130.2 626C173.7 611 217.3 621 260.8 611C304.3 601 347.7 571 391.2 546C434.7 521 478.3 501 521.8 501C565.3 501 608.7 521 652.2 511C695.7 501 739.3 461 782.8 486C826.3 511 869.7 601 913 621C956.3 641 999.7 591 1043.2 556C1086.7 521 1130.3 501 1173.8 496C1217.3 491 1260.7 501 1304.2 506C1347.7 511 1391.3 511 1434.8 511C1478.3 511 1521.7 511 1565.2 516C1608.7 521 1652.3 531 1695.8 541C1739.3 551 1782.7 561 1826.2 531C1869.7 501 1913.3 431 1956.8 406C2000.3 381 2043.7 401 2087 436C2130.3 471 2173.7 521 2217.2 546C2260.7 571 2304.3 571 2347.8 546C2391.3 521 2434.7 471 2478.2 471C2521.7 471 2565.3 521 2608.8 536C2652.3 551 2695.7 531 2739.2 506C2782.7 481 2826.3 451 2869.8 461C2913.3 471 2956.7 521 2978.3 546L3000 571L3000 419L2978.3 399C2956.7 379 2913.3 339 2869.8 344C2826.3 349 2782.7 399 2739.2 424C2695.7 449 2652.3 449 2608.8 429C2565.3 409 2521.7 369 2478.2 379C2434.7 389 2391.3 449 2347.8 474C2304.3 499 2260.7 489 2217.2 464C2173.7 439 2130.3 399 2087 369C2043.7 339 2000.3 319 1956.8 344C1913.3 369 1869.7 439 1826.2 454C1782.7 469 1739.3 429 1695.8 414C1652.3 399 1608.7 409 1565.2 409C1521.7 409 1478.3 399 1434.8 389C1391.3 379 1347.7 369 1304.2 364C1260.7 359 1217.3 359 1173.8 364C1130.3 369 1086.7 379 1043.2 409C999.7 439 956.3 489 913 479C869.7 469 826.3 399 782.8 389C739.3 379 695.7 429 652.2 434C608.7 439 565.3 399 521.8 389C478.3 379 434.7 399 391.2 419C347.7 439 304.3 459 260.8 474C217.3 489 173.7 499 130.2 514C86.7 529 43.3 549 21.7 559L0 569Z" fill="#000000"></path><path d="M0 1111L21.7 1131C43.3 1151 86.7 1191 130.2 1246C173.7 1301 217.3 1371 260.8 1331C304.3 1291 347.7 1141 391.2 1036C434.7 931 478.3 871 521.8 931C565.3 991 608.7 1171 652.2 1261C695.7 1351 739.3 1351 782.8 1371C826.3 1391 869.7 1431 913 1446C956.3 1461 999.7 1451 1043.2 1346C1086.7 1241 1130.3 1041 1173.8 986C1217.3 931 1260.7 1021 1304.2 1131C1347.7 1241 1391.3 1371 1434.8 1366C1478.3 1361 1521.7 1221 1565.2 1121C1608.7 1021 1652.3 961 1695.8 956C1739.3 951 1782.7 1001 1826.2 1006C1869.7 1011 1913.3 971 1956.8 936C2000.3 901 2043.7 871 2087 936C2130.3 1001 2173.7 1161 2217.2 1256C2260.7 1351 2304.3 1381 2347.8 1296C2391.3 1211 2434.7 1011 2478.2 981C2521.7 951 2565.3 1091 2608.8 1191C2652.3 1291 2695.7 1351 2739.2 1276C2782.7 1201 2826.3 991 2869.8 996C2913.3 1001 2956.7 1221 2978.3 1331L3000 1441L3000 569L2978.3 544C2956.7 519 2913.3 469 2869.8 459C2826.3 449 2782.7 479 2739.2 504C2695.7 529 2652.3 549 2608.8 534C2565.3 519 2521.7 469 2478.2 469C2434.7 469 2391.3 519 2347.8 544C2304.3 569 2260.7 569 2217.2 544C2173.7 519 2130.3 469 2087 434C2043.7 399 2000.3 379 1956.8 404C1913.3 429 1869.7 499 1826.2 529C1782.7 559 1739.3 549 1695.8 539C1652.3 529 1608.7 519 1565.2 514C1521.7 509 1478.3 509 1434.8 509C1391.3 509 1347.7 509 1304.2 504C1260.7 499 1217.3 489 1173.8 494C1130.3 499 1086.7 519 1043.2 554C999.7 589 956.3 639 913 619C869.7 599 826.3 509 782.8 484C739.3 459 695.7 499 652.2 509C608.7 519 565.3 499 521.8 499C478.3 499 434.7 519 391.2 544C347.7 569 304.3 599 260.8 609C217.3 619 173.7 609 130.2 624C86.7 639 43.3 679 21.7 699L0 719Z" fill="#000000"></path><path d="M0 1651L21.7 1641C43.3 1631 86.7 1611 130.2 1616C173.7 1621 217.3 1651 260.8 1656C304.3 1661 347.7 1641 391.2 1631C434.7 1621 478.3 1621 521.8 1636C565.3 1651 608.7 1681 652.2 1716C695.7 1751 739.3 1791 782.8 1851C826.3 1911 869.7 1991 913 1971C956.3 1951 999.7 1831 1043.2 1731C1086.7 1631 1130.3 1551 1173.8 1521C1217.3 1491 1260.7 1511 1304.2 1576C1347.7 1641 1391.3 1751 1434.8 1766C1478.3 1781 1521.7 1701 1565.2 1671C1608.7 1641 1652.3 1661 1695.8 1696C1739.3 1731 1782.7 1781 1826.2 1756C1869.7 1731 1913.3 1631 1956.8 1591C2000.3 1551 2043.7 1571 2087 1591C2130.3 1611 2173.7 1631 2217.2 1656C2260.7 1681 2304.3 1711 2347.8 1661C2391.3 1611 2434.7 1481 2478.2 1471C2521.7 1461 2565.3 1571 2608.8 1626C2652.3 1681 2695.7 1681 2739.2 1666C2782.7 1651 2826.3 1621 2869.8 1681C2913.3 1741 2956.7 1891 2978.3 1966L3000 2041L3000 1439L2978.3 1329C2956.7 1219 2913.3 999 2869.8 994C2826.3 989 2782.7 1199 2739.2 1274C2695.7 1349 2652.3 1289 2608.8 1189C2565.3 1089 2521.7 949 2478.2 979C2434.7 1009 2391.3 1209 2347.8 1294C2304.3 1379 2260.7 1349 2217.2 1254C2173.7 1159 2130.3 999 2087 934C2043.7 869 2000.3 899 1956.8 934C1913.3 969 1869.7 1009 1826.2 1004C1782.7 999 1739.3 949 1695.8 954C1652.3 959 1608.7 1019 1565.2 1119C1521.7 1219 1478.3 1359 1434.8 1364C1391.3 1369 1347.7 1239 1304.2 1129C1260.7 1019 1217.3 929 1173.8 984C1130.3 1039 1086.7 1239 1043.2 1344C999.7 1449 956.3 1459 913 1444C869.7 1429 826.3 1389 782.8 1369C739.3 1349 695.7 1349 652.2 1259C608.7 1169 565.3 989 521.8 929C478.3 869 434.7 929 391.2 1034C347.7 1139 304.3 1289 260.8 1329C217.3 1369 173.7 1299 130.2 1244C86.7 1189 43.3 1149 21.7 1129L0 1109Z" fill="#000000"></path><path d="M0 1801L21.7 1776C43.3 1751 86.7 1701 130.2 1691C173.7 1681 217.3 1711 260.8 1726C304.3 1741 347.7 1741 391.2 1741C434.7 1741 478.3 1741 521.8 1756C565.3 1771 608.7 1801 652.2 1831C695.7 1861 739.3 1891 782.8 1941C826.3 1991 869.7 2061 913 2046C956.3 2031 999.7 1931 1043.2 1831C1086.7 1731 1130.3 1631 1173.8 1611C1217.3 1591 1260.7 1651 1304.2 1726C1347.7 1801 1391.3 1891 1434.8 1891C1478.3 1891 1521.7 1801 1565.2 1776C1608.7 1751 1652.3 1791 1695.8 1831C1739.3 1871 1782.7 1911 1826.2 1891C1869.7 1871 1913.3 1791 1956.8 1761C2000.3 1731 2043.7 1751 2087 1776C2130.3 1801 2173.7 1831 2217.2 1836C2260.7 1841 2304.3 1821 2347.8 1766C2391.3 1711 2434.7 1621 2478.2 1611C2521.7 1601 2565.3 1671 2608.8 1711C2652.3 1751 2695.7 1761 2739.2 1771C2782.7 1781 2826.3 1791 2869.8 1846C2913.3 1901 2956.7 2001 2978.3 2051L3000 2101L3000 2039L2978.3 1964C2956.7 1889 2913.3 1739 2869.8 1679C2826.3 1619 2782.7 1649 2739.2 1664C2695.7 1679 2652.3 1679 2608.8 1624C2565.3 1569 2521.7 1459 2478.2 1469C2434.7 1479 2391.3 1609 2347.8 1659C2304.3 1709 2260.7 1679 2217.2 1654C2173.7 1629 2130.3 1609 2087 1589C2043.7 1569 2000.3 1549 1956.8 1589C1913.3 1629 1869.7 1729 1826.2 1754C1782.7 1779 1739.3 1729 1695.8 1694C1652.3 1659 1608.7 1639 1565.2 1669C1521.7 1699 1478.3 1779 1434.8 1764C1391.3 1749 1347.7 1639 1304.2 1574C1260.7 1509 1217.3 1489 1173.8 1519C1130.3 1549 1086.7 1629 1043.2 1729C999.7 1829 956.3 1949 913 1969C869.7 1989 826.3 1909 782.8 1849C739.3 1789 695.7 1749 652.2 1714C608.7 1679 565.3 1649 521.8 1634C478.3 1619 434.7 1619 391.2 1629C347.7 1639 304.3 1659 260.8 1654C217.3 1649 173.7 1619 130.2 1614C86.7 1609 43.3 1629 21.7 1639L0 1649Z" fill="#000000"></path><path d="M0 1981L21.7 1971C43.3 1961 86.7 1941 130.2 1941C173.7 1941 217.3 1961 260.8 1986C304.3 2011 347.7 2041 391.2 2026C434.7 2011 478.3 1951 521.8 1946C565.3 1941 608.7 1991 652.2 2036C695.7 2081 739.3 2121 782.8 2161C826.3 2201 869.7 2241 913 2236C956.3 2231 999.7 2181 1043.2 2111C1086.7 2041 1130.3 1951 1173.8 1916C1217.3 1881 1260.7 1901 1304.2 1941C1347.7 1981 1391.3 2041 1434.8 2026C1478.3 2011 1521.7 1921 1565.2 1921C1608.7 1921 1652.3 2011 1695.8 2061C1739.3 2111 1782.7 2121 1826.2 2106C1869.7 2091 1913.3 2051 1956.8 2066C2000.3 2081 2043.7 2151 2087 2161C2130.3 2171 2173.7 2121 2217.2 2101C2260.7 2081 2304.3 2091 2347.8 2046C2391.3 2001 2434.7 1901 2478.2 1891C2521.7 1881 2565.3 1961 2608.8 2016C2652.3 2071 2695.7 2101 2739.2 2091C2782.7 2081 2826.3 2031 2869.8 2056C2913.3 2081 2956.7 2181 2978.3 2231L3000 2281L3000 2099L2978.3 2049C2956.7 1999 2913.3 1899 2869.8 1844C2826.3 1789 2782.7 1779 2739.2 1769C2695.7 1759 2652.3 1749 2608.8 1709C2565.3 1669 2521.7 1599 2478.2 1609C2434.7 1619 2391.3 1709 2347.8 1764C2304.3 1819 2260.7 1839 2217.2 1834C2173.7 1829 2130.3 1799 2087 1774C2043.7 1749 2000.3 1729 1956.8 1759C1913.3 1789 1869.7 1869 1826.2 1889C1782.7 1909 1739.3 1869 1695.8 1829C1652.3 1789 1608.7 1749 1565.2 1774C1521.7 1799 1478.3 1889 1434.8 1889C1391.3 1889 1347.7 1799 1304.2 1724C1260.7 1649 1217.3 1589 1173.8 1609C1130.3 1629 1086.7 1729 1043.2 1829C999.7 1929 956.3 2029 913 2044C869.7 2059 826.3 1989 782.8 1939C739.3 1889 695.7 1859 652.2 1829C608.7 1799 565.3 1769 521.8 1754C478.3 1739 434.7 1739 391.2 1739C347.7 1739 304.3 1739 260.8 1724C217.3 1709 173.7 1679 130.2 1689C86.7 1699 43.3 1749 21.7 1774L0 1799Z" fill="#000000"></path><path d="M0 2461L21.7 2446C43.3 2431 86.7 2401 130.2 2386C173.7 2371 217.3 2371 260.8 2371C304.3 2371 347.7 2371 391.2 2386C434.7 2401 478.3 2431 521.8 2451C565.3 2471 608.7 2481 652.2 2476C695.7 2471 739.3 2451 782.8 2456C826.3 2461 869.7 2491 913 2476C956.3 2461 999.7 2401 1043.2 2381C1086.7 2361 1130.3 2381 1173.8 2401C1217.3 2421 1260.7 2441 1304.2 2441C1347.7 2441 1391.3 2421 1434.8 2406C1478.3 2391 1521.7 2381 1565.2 2386C1608.7 2391 1652.3 2411 1695.8 2411C1739.3 2411 1782.7 2391 1826.2 2376C1869.7 2361 1913.3 2351 1956.8 2381C2000.3 2411 2043.7 2481 2087 2486C2130.3 2491 2173.7 2431 2217.2 2406C2260.7 2381 2304.3 2391 2347.8 2376C2391.3 2361 2434.7 2321 2478.2 2341C2521.7 2361 2565.3 2441 2608.8 2471C2652.3 2501 2695.7 2481 2739.2 2471C2782.7 2461 2826.3 2461 2869.8 2471C2913.3 2481 2956.7 2501 2978.3 2511L3000 2521L3000 2279L2978.3 2229C2956.7 2179 2913.3 2079 2869.8 2054C2826.3 2029 2782.7 2079 2739.2 2089C2695.7 2099 2652.3 2069 2608.8 2014C2565.3 1959 2521.7 1879 2478.2 1889C2434.7 1899 2391.3 1999 2347.8 2044C2304.3 2089 2260.7 2079 2217.2 2099C2173.7 2119 2130.3 2169 2087 2159C2043.7 2149 2000.3 2079 1956.8 2064C1913.3 2049 1869.7 2089 1826.2 2104C1782.7 2119 1739.3 2109 1695.8 2059C1652.3 2009 1608.7 1919 1565.2 1919C1521.7 1919 1478.3 2009 1434.8 2024C1391.3 2039 1347.7 1979 1304.2 1939C1260.7 1899 1217.3 1879 1173.8 1914C1130.3 1949 1086.7 2039 1043.2 2109C999.7 2179 956.3 2229 913 2234C869.7 2239 826.3 2199 782.8 2159C739.3 2119 695.7 2079 652.2 2034C608.7 1989 565.3 1939 521.8 1944C478.3 1949 434.7 2009 391.2 2024C347.7 2039 304.3 2009 260.8 1984C217.3 1959 173.7 1939 130.2 1939C86.7 1939 43.3 1959 21.7 1969L0 1979Z" fill="#000000"></path><path d="M0 2611L21.7 2591C43.3 2571 86.7 2531 130.2 2516C173.7 2501 217.3 2511 260.8 2521C304.3 2531 347.7 2541 391.2 2546C434.7 2551 478.3 2551 521.8 2556C565.3 2561 608.7 2571 652.2 2581C695.7 2591 739.3 2601 782.8 2611C826.3 2621 869.7 2631 913 2611C956.3 2591 999.7 2541 1043.2 2521C1086.7 2501 1130.3 2511 1173.8 2536C1217.3 2561 1260.7 2601 1304.2 2601C1347.7 2601 1391.3 2561 1434.8 2536C1478.3 2511 1521.7 2501 1565.2 2516C1608.7 2531 1652.3 2571 1695.8 2571C1739.3 2571 1782.7 2531 1826.2 2516C1869.7 2501 1913.3 2511 1956.8 2536C2000.3 2561 2043.7 2601 2087 2601C2130.3 2601 2173.7 2561 2217.2 2531C2260.7 2501 2304.3 2481 2347.8 2456C2391.3 2431 2434.7 2401 2478.2 2431C2521.7 2461 2565.3 2551 2608.8 2581C2652.3 2611 2695.7 2581 2739.2 2576C2782.7 2571 2826.3 2591 2869.8 2611C2913.3 2631 2956.7 2651 2978.3 2661L3000 2671L3000 2519L2978.3 2509C2956.7 2499 2913.3 2479 2869.8 2469C2826.3 2459 2782.7 2459 2739.2 2469C2695.7 2479 2652.3 2499 2608.8 2469C2565.3 2439 2521.7 2359 2478.2 2339C2434.7 2319 2391.3 2359 2347.8 2374C2304.3 2389 2260.7 2379 2217.2 2404C2173.7 2429 2130.3 2489 2087 2484C2043.7 2479 2000.3 2409 1956.8 2379C1913.3 2349 1869.7 2359 1826.2 2374C1782.7 2389 1739.3 2409 1695.8 2409C1652.3 2409 1608.7 2389 1565.2 2384C1521.7 2379 1478.3 2389 1434.8 2404C1391.3 2419 1347.7 2439 1304.2 2439C1260.7 2439 1217.3 2419 1173.8 2399C1130.3 2379 1086.7 2359 1043.2 2379C999.7 2399 956.3 2459 913 2474C869.7 2489 826.3 2459 782.8 2454C739.3 2449 695.7 2469 652.2 2474C608.7 2479 565.3 2469 521.8 2449C478.3 2429 434.7 2399 391.2 2384C347.7 2369 304.3 2369 260.8 2369C217.3 2369 173.7 2369 130.2 2384C86.7 2399 43.3 2429 21.7 2444L0 2459Z" fill="#050505"></path><path d="M0 2761L21.7 2766C43.3 2771 86.7 2781 130.2 2771C173.7 2761 217.3 2731 260.8 2721C304.3 2711 347.7 2721 391.2 2741C434.7 2761 478.3 2791 521.8 2791C565.3 2791 608.7 2761 652.2 2756C695.7 2751 739.3 2771 782.8 2771C826.3 2771 869.7 2751 913 2746C956.3 2741 999.7 2751 1043.2 2751C1086.7 2751 1130.3 2741 1173.8 2746C1217.3 2751 1260.7 2771 1304.2 2771C1347.7 2771 1391.3 2751 1434.8 2731C1478.3 2711 1521.7 2691 1565.2 2716C1608.7 2741 1652.3 2811 1695.8 2826C1739.3 2841 1782.7 2801 1826.2 2776C1869.7 2751 1913.3 2741 1956.8 2761C2000.3 2781 2043.7 2831 2087 2831C2130.3 2831 2173.7 2781 2217.2 2756C2260.7 2731 2304.3 2731 2347.8 2721C2391.3 2711 2434.7 2691 2478.2 2691C2521.7 2691 2565.3 2711 2608.8 2731C2652.3 2751 2695.7 2771 2739.2 2771C2782.7 2771 2826.3 2751 2869.8 2761C2913.3 2771 2956.7 2811 2978.3 2831L3000 2851L3000 2669L2978.3 2659C2956.7 2649 2913.3 2629 2869.8 2609C2826.3 2589 2782.7 2569 2739.2 2574C2695.7 2579 2652.3 2609 2608.8 2579C2565.3 2549 2521.7 2459 2478.2 2429C2434.7 2399 2391.3 2429 2347.8 2454C2304.3 2479 2260.7 2499 2217.2 2529C2173.7 2559 2130.3 2599 2087 2599C2043.7 2599 2000.3 2559 1956.8 2534C1913.3 2509 1869.7 2499 1826.2 2514C1782.7 2529 1739.3 2569 1695.8 2569C1652.3 2569 1608.7 2529 1565.2 2514C1521.7 2499 1478.3 2509 1434.8 2534C1391.3 2559 1347.7 2599 1304.2 2599C1260.7 2599 1217.3 2559 1173.8 2534C1130.3 2509 1086.7 2499 1043.2 2519C999.7 2539 956.3 2589 913 2609C869.7 2629 826.3 2619 782.8 2609C739.3 2599 695.7 2589 652.2 2579C608.7 2569 565.3 2559 521.8 2554C478.3 2549 434.7 2549 391.2 2544C347.7 2539 304.3 2529 260.8 2519C217.3 2509 173.7 2499 130.2 2514C86.7 2529 43.3 2569 21.7 2589L0 2609Z" fill="#191919"></path><path d="M0 3001L21.7 3001C43.3 3001 86.7 3001 130.2 3001C173.7 3001 217.3 3001 260.8 3001C304.3 3001 347.7 3001 391.2 3001C434.7 3001 478.3 3001 521.8 3001C565.3 3001 608.7 3001 652.2 3001C695.7 3001 739.3 3001 782.8 3001C826.3 3001 869.7 3001 913 3001C956.3 3001 999.7 3001 1043.2 3001C1086.7 3001 1130.3 3001 1173.8 3001C1217.3 3001 1260.7 3001 1304.2 3001C1347.7 3001 1391.3 3001 1434.8 3001C1478.3 3001 1521.7 3001 1565.2 3001C1608.7 3001 1652.3 3001 1695.8 3001C1739.3 3001 1782.7 3001 1826.2 3001C1869.7 3001 1913.3 3001 1956.8 3001C2000.3 3001 2043.7 3001 2087 3001C2130.3 3001 2173.7 3001 2217.2 3001C2260.7 3001 2304.3 3001 2347.8 3001C2391.3 3001 2434.7 3001 2478.2 3001C2521.7 3001 2565.3 3001 2608.8 3001C2652.3 3001 2695.7 3001 2739.2 3001C2782.7 3001 2826.3 3001 2869.8 3001C2913.3 3001 2956.7 3001 2978.3 3001L3000 3001L3000 2849L2978.3 2829C2956.7 2809 2913.3 2769 2869.8 2759C2826.3 2749 2782.7 2769 2739.2 2769C2695.7 2769 2652.3 2749 2608.8 2729C2565.3 2709 2521.7 2689 2478.2 2689C2434.7 2689 2391.3 2709 2347.8 2719C2304.3 2729 2260.7 2729 2217.2 2754C2173.7 2779 2130.3 2829 2087 2829C2043.7 2829 2000.3 2779 1956.8 2759C1913.3 2739 1869.7 2749 1826.2 2774C1782.7 2799 1739.3 2839 1695.8 2824C1652.3 2809 1608.7 2739 1565.2 2714C1521.7 2689 1478.3 2709 1434.8 2729C1391.3 2749 1347.7 2769 1304.2 2769C1260.7 2769 1217.3 2749 1173.8 2744C1130.3 2739 1086.7 2749 1043.2 2749C999.7 2749 956.3 2739 913 2744C869.7 2749 826.3 2769 782.8 2769C739.3 2769 695.7 2749 652.2 2754C608.7 2759 565.3 2789 521.8 2789C478.3 2789 434.7 2759 391.2 2739C347.7 2719 304.3 2709 260.8 2719C217.3 2729 173.7 2759 130.2 2769C86.7 2779 43.3 2769 21.7 2764L0 2759Z" fill="#282828"></path></svg>